<svg width="132" height="119" viewBox="0 0 132 119" fill="none" xmlns="http://www.w3.org/2000/svg">
<path d="M68.0901 117.6C96.0901 117.6 118.79 94.9 118.79 66.8C118.79 38.7 95.9901 16 68.0901 16C40.0901 16 17.3901 38.7 17.3901 66.8C17.3901 94.9 40.0901 117.6 68.0901 117.6Z" fill="#F4F4F5" stroke="#D4D4D8" stroke-width="2" stroke-miterlimit="10"/>
<path d="M115.09 33.5999C117.355 33.5999 119.19 31.7643 119.19 29.4999C119.19 27.2355 117.355 25.3999 115.09 25.3999C112.826 25.3999 110.99 27.2355 110.99 29.4999C110.99 31.7643 112.826 33.5999 115.09 33.5999Z" fill="#F4F4F5"/>
<path d="M121.09 17.6C122.636 17.6 123.89 16.3464 123.89 14.8C123.89 13.2536 122.636 12 121.09 12C119.544 12 118.29 13.2536 118.29 14.8C118.29 16.3464 119.544 17.6 121.09 17.6Z" fill="#F4F4F5"/>
<path d="M13.1901 40.6C14.7365 40.6 15.9901 39.3464 15.9901 37.8C15.9901 36.2536 14.7365 35 13.1901 35C11.6437 35 10.3901 36.2536 10.3901 37.8C10.3901 39.3464 11.6437 40.6 13.1901 40.6Z" fill="#F4F4F5"/>
<path d="M28.5901 118.4C31.462 118.4 33.7901 116.072 33.7901 113.2C33.7901 110.328 31.462 108 28.5901 108C25.7183 108 23.3901 110.328 23.3901 113.2C23.3901 116.072 25.7183 118.4 28.5901 118.4Z" fill="#F4F4F5"/>
<path d="M130.61 80.551C130.61 93.3948 120.223 103.782 107.268 103.782C107.045 103.782 105.146 103.782 91.1852 103.782C81.4686 103.782 65.9443 103.782 41.1501 103.782H29.3115C13.7872 104.117 1.39014 91.7195 1.39014 76.7537C1.39014 61.6762 13.8989 49.1674 29.6465 49.9492C43.1605 7.73215 105.034 13.6515 110.283 57.3204C121.899 58.7724 130.61 68.6007 130.61 80.551Z" fill="white" stroke="#D4D4D8" stroke-width="2" stroke-miterlimit="10"/>
<path d="M109.948 57.432C109.055 57.3203 108.161 57.3203 107.268 57.3203C102.689 57.3203 98.3331 58.6605 94.6475 61.0059" fill="white"/>
<path d="M109.948 57.432C109.055 57.3203 108.161 57.3203 107.268 57.3203C102.689 57.3203 98.3331 58.6605 94.6475 61.0059" stroke="#D4D4D8" stroke-width="2" stroke-miterlimit="10" stroke-linecap="round"/>
<path d="M29.6466 49.9492C28.3063 53.9699 27.6362 58.2139 27.6362 62.6813C27.6362 64.4683 27.7479 66.1436 27.9713 67.8189" fill="white"/>
<path d="M29.6466 49.9492C28.3063 53.9699 27.6362 58.2139 27.6362 62.6813C27.6362 64.4683 27.7479 66.1436 27.9713 67.8189" stroke="#D4D4D8" stroke-width="2" stroke-miterlimit="10" stroke-linecap="round" stroke-linejoin="round"/>
<path d="M58.0078 63.5102L59.9625 61.551C60.5327 60.9796 60.5327 60 59.9625 59.4286C59.3924 58.8571 58.415 58.8571 57.8449 59.4286L55.8901 61.3878L53.9354 59.4286C53.3652 58.8571 52.3879 58.8571 51.8177 59.4286C51.2476 60 51.2476 60.9796 51.8177 61.551L53.7725 63.5102L51.8177 65.4694C51.2476 66.0408 51.2476 67.0204 51.8177 67.5918C52.1435 67.9184 52.4693 68 52.8766 68C53.2838 68 53.6096 67.8367 53.9354 67.5918L55.8901 65.6327L57.8449 67.5918C58.1707 67.9184 58.4965 68 58.9037 68C59.311 68 59.6367 67.8367 59.9625 67.5918C60.5327 67.0204 60.5327 66.0408 59.9625 65.4694L58.0078 63.5102Z" fill="#A1A1AA"/>
<path d="M78.7431 63.5102L80.915 61.551C81.5485 60.9796 81.5485 60 80.915 59.4286C80.2815 58.8571 79.1956 58.8571 78.5621 59.4286L76.3901 61.3878L74.2182 59.4286C73.5847 58.8571 72.4987 58.8571 71.8652 59.4286C71.2318 60 71.2318 60.9796 71.8652 61.551L74.0372 63.5102L71.8652 65.4694C71.2318 66.0408 71.2318 67.0204 71.8652 67.5918C72.2272 67.9184 72.5892 68 73.0417 68C73.4942 68 73.8562 67.8367 74.2182 67.5918L76.3901 65.6327L78.5621 67.5918C78.9241 67.9184 79.2861 68 79.7386 68C80.191 68 80.553 67.8367 80.915 67.5918C81.5485 67.0204 81.5485 66.0408 80.915 65.4694L78.7431 63.5102Z" fill="#A1A1AA"/>
<path fill-rule="evenodd" clip-rule="evenodd" d="M22.1264 24.0523C22.3608 23.1302 23.2984 22.5727 24.2205 22.8071L30.7406 24.4644C31.6628 24.6988 32.2203 25.6364 31.9859 26.5585C31.7515 27.4806 30.814 28.0381 29.8918 27.8037L23.3717 26.1464C22.4496 25.912 21.892 24.9745 22.1264 24.0523Z" fill="#D4D4D8"/>
<path fill-rule="evenodd" clip-rule="evenodd" d="M27.6665 5.71527C28.4538 5.18093 29.5251 5.38592 30.0595 6.17314L37.8539 17.6561C38.3882 18.4434 38.1832 19.5147 37.396 20.0491C36.6088 20.5834 35.5375 20.3784 35.0031 19.5912L27.2087 8.10818C26.6743 7.32096 26.8793 6.24962 27.6665 5.71527Z" fill="#D4D4D8"/>
<path fill-rule="evenodd" clip-rule="evenodd" d="M42.1252 0.536284C43.0586 0.351547 43.9649 0.958405 44.1497 1.89174L46.8444 15.5061C47.0291 16.4394 46.4223 17.3458 45.489 17.5306C44.5556 17.7153 43.6492 17.1084 43.4645 16.1751L40.7698 2.56073C40.585 1.6274 41.1919 0.721022 42.1252 0.536284Z" fill="#D4D4D8"/>
<rect x="55.3901" y="77" width="23" height="3" rx="1.5" fill="#A1A1AA"/>
<path d="M69.3901 78H73.3901V83C73.3901 84.1046 72.4947 85 71.3901 85C70.2856 85 69.3901 84.1046 69.3901 83V78Z" fill="#A1A1AA"/>
<path d="M121.984 34.0647C121.558 35.8614 120.918 37.5889 120.137 39.1783C118.076 42.9098 115.02 45.9503 111.183 47.8161C107.203 49.82 102.513 50.511 97.7522 49.6127C86.6666 47.3323 79.4893 36.8288 81.8344 25.9798C84.1794 15.1308 94.9097 8.15147 106.066 10.4318C110.046 11.2611 113.528 13.1268 116.441 15.8218C121.274 20.6589 123.334 27.5 121.984 34.0647Z" fill="#FFC01F" stroke="#FFC01F" stroke-width="2" stroke-miterlimit="10"/>
<path d="M98.8983 20.1442L98.8983 20.1442L98.8989 20.1522L99.7113 30.2291C99.7799 31.4288 100.705 32.5 101.89 32.5C103.075 32.5 104 31.4288 104.069 30.2291L104.881 20.1522L104.881 20.1522L104.882 20.1431C105.004 18.1862 103.711 16.5 101.89 16.5C100.064 16.5 98.7765 18.2551 98.8983 20.1442Z" fill="white" stroke="white"/>
<path d="M101.89 36.5C100.225 36.5 98.8901 37.835 98.8901 39.5C98.8901 41.165 100.225 42.5 101.89 42.5C103.555 42.5 104.89 41.165 104.89 39.5C104.89 37.835 103.555 36.5 101.89 36.5Z" fill="white" stroke="white"/>
</svg>
